<?xml version="1.0" encoding="UTF-8" standalone="no"?>
<!DOCTYPE svg PUBLIC "-//W3C//DTD SVG 1.1//EN" "http://www.w3.org/Graphics/SVG/1.1/DTD/svg11.dtd">
<svg version="1.1" xmlns="http://www.w3.org/2000/svg" xmlns:xlink="http://www.w3.org/1999/xlink" preserveAspectRatio="xMidYMid meet" viewBox="0 0 640 640"><defs><path d="M358.62 590.11L345.79 602.02C332.64 613.69 317.35 622.92 299.93 629.73C282.5 636.53 266.82 636.86 252.88 630.7C235.14 622.27 221.83 610.93 212.96 596.67C204.09 582.41 199.34 565 198.7 544.42C185.71 517.03 182.15 489.81 188.01 462.75C193.87 435.69 208.25 406.28 231.14 374.53L235.18 353.62C233.12 347.63 228.21 329.89 220.45 300.4C208.81 256.16 216.88 232.83 235.89 210.47C248.57 195.56 272.17 181.87 306.7 169.39C337.72 154.38 359.04 139.14 370.69 123.67C388.15 100.46 388.35 85.88 393.98 77.26C397.72 71.51 403.21 64.94 410.44 57.54C426.77 38.79 434.73 27.7 434.33 24.28C433.73 19.14 437.54 -7.76 455.81 12.16C474.08 32.08 481.31 58.16 484.32 68.02C486.33 74.59 488.87 88.35 491.95 109.29L497.77 140.51C499.24 144.75 500.85 150.84 502.59 158.78C504.33 166.72 501.45 170.9 493.96 171.31C476.69 178.43 468.12 190.68 468.26 208.07C468.39 225.45 464.8 243.7 457.48 262.8L448.82 297.52L435.66 351.73L364.3 579.55L358.62 590.11Z" id="h2jREucOSy"></path></defs><g visibility="inherit"><g visibility="inherit"><g visibility="inherit"><g><use xlink:href="#h2jREucOSy" opacity="1" fill-opacity="0" stroke="#aedeea" stroke-width="5" stroke-opacity="1"></use></g></g></g></g></svg>